<?xml version="1.0" standalone="no"?>
<!DOCTYPE svg PUBLIC "-//W3C//DTD SVG 20010904//EN"
 "http://www.w3.org/TR/2001/REC-SVG-20010904/DTD/svg10.dtd">
<svg version="1.0" xmlns="http://www.w3.org/2000/svg"
 width="300.000000pt" height="169.000000pt" viewBox="0 0 300.000000 169.000000"
 preserveAspectRatio="xMidYMid meet">
<metadata>
Created by potrace 1.10, written by Peter Selinger 2001-2011
</metadata>
<g transform="translate(0.000000,169.000000) scale(0.100000,-0.100000)"
fill="#000000" stroke="none">
<path d="M1046 1411 c-17 -19 -17 -22 1 -73 l19 -53 151 -2 c86 0 168 -6 188
-13 25 -8 44 -9 63 -2 53 20 92 22 134 5 32 -13 45 -14 59 -5 12 8 69 12 154
12 122 0 135 2 145 19 13 25 2 79 -19 90 -9 5 -93 9 -187 10 -141 1 -174 -2
-184 -14 -15 -19 -40 -20 -40 -2 0 8 -8 21 -17 29 -24 20 -193 19 -217 -1 -23
-19 -92 -18 -114 2 -27 25 -114 23 -136 -2z m84 -21 c0 -5 -7 -7 -16 -3 -15 5
-16 0 -12 -38 4 -38 2 -45 -12 -46 -15 -1 -17 5 -12 43 3 27 1 44 -6 44 -6 0
-13 -6 -15 -12 -3 -8 -6 -6 -6 5 -1 13 7 17 39 17 22 0 40 -4 40 -10z m40 -5
c0 -8 7 -15 15 -15 8 0 15 -9 15 -19 0 -11 2 -26 5 -34 4 -8 0 -14 -10 -14 -9
0 -14 6 -11 14 7 16 -4 44 -14 38 -4 -2 -5 -15 -3 -28 3 -15 0 -24 -9 -24 -9
0 -13 15 -13 49 0 32 4 48 13 48 6 0 12 -7 12 -15z m190 -1 c0 -14 -3 -14 -15
-4 -9 7 -19 9 -23 5 -4 -4 3 -14 16 -22 25 -18 29 -48 7 -57 -21 -8 -45 3 -45
21 0 13 3 13 15 3 9 -7 19 -10 23 -6 4 4 -4 15 -16 25 -15 11 -21 23 -16 34 8
22 54 23 54 1z m78 4 c7 -7 12 -24 12 -38 0 -14 -5 -31 -12 -38 -9 -9 -7 -12
10 -12 25 0 38 35 28 75 -5 20 -3 25 12 25 15 0 17 -7 14 -41 -4 -39 -3 -42
17 -36 15 3 21 1 18 -6 -2 -7 -15 -12 -30 -12 -14 0 -29 -3 -33 -7 -12 -12
-43 -9 -74 7 -22 12 -30 23 -30 43 0 31 16 52 40 52 9 0 21 -5 28 -12z m366
-46 c0 -18 -5 -32 -10 -32 -10 -1 -24 56 -16 65 13 13 26 -3 26 -33z m-537 11
c2 -6 -6 -13 -19 -16 l-23 -4 23 -8 c17 -5 20 -10 11 -15 -19 -13 -39 0 -39
24 0 13 3 26 7 30 10 10 36 3 40 -11z m383 0 c0 -8 5 -11 10 -8 6 4 8 11 5 16
-4 5 1 9 10 9 13 0 11 -9 -10 -50 -14 -28 -30 -48 -36 -44 -6 3 -4 11 7 18 14
11 15 16 3 37 -8 13 -22 25 -32 25 -18 2 -18 1 -1 -18 16 -16 16 -21 4 -28
-18 -11 -32 -8 -38 8 -2 8 3 10 15 6 17 -6 17 -6 -1 8 -26 20 -13 36 29 36 24
0 35 -5 35 -15z m104 1 c11 -28 6 -51 -9 -51 -10 0 -13 6 -9 19 3 10 2 23 -3
30 -5 9 -9 3 -13 -16 -7 -43 -27 -44 -22 -1 3 29 8 35 27 35 13 0 26 -7 29
-16z m114 -15 c2 -20 -2 -28 -17 -32 -27 -7 -39 13 -18 28 22 16 22 26 0 18
-11 -4 -14 -3 -9 6 13 20 41 8 44 -20z m70 11 c-11 -17 -10 -22 2 -30 8 -5 11
-12 7 -16 -3 -4 -13 -1 -22 6 -8 7 -15 8 -15 3 0 -5 -7 -10 -15 -10 -18 0 -20
14 -2 20 9 3 9 9 -1 26 -11 20 -10 21 23 21 33 0 34 -1 23 -20z"/>
<path d="M1394 1376 c-9 -24 0 -51 19 -54 15 -3 18 2 15 29 -3 35 -24 51 -34
25z"/>
<path d="M1147 1179 c-9 -5 -24 -23 -32 -39 -14 -27 -21 -30 -61 -30 -35 0
-54 6 -76 25 -26 22 -39 25 -111 25 -45 1 -109 1 -142 1 -222 2 -225 1 -227
-111 -2 -78 -8 -90 -46 -90 -13 0 -33 -10 -46 -23 -21 -21 -23 -32 -24 -136
-1 -99 1 -114 18 -131 22 -22 17 -22 182 -20 100 1 118 -1 126 -16 9 -16 10
-16 16 2 5 17 15 20 61 20 63 -1 81 12 89 64 4 31 36 70 56 70 4 0 6 -25 4
-54 -6 -88 -8 -88 238 -85 233 2 313 14 313 45 1 11 9 31 18 44 15 21 19 23
27 10 6 -10 10 -11 10 -2 0 6 11 12 25 12 16 0 25 -6 25 -15 0 -11 -12 -15
-45 -15 -35 0 -43 -3 -39 -15 4 -8 10 -12 15 -9 5 3 9 0 9 -5 0 -6 -5 -11 -12
-11 -6 0 -3 -9 7 -20 17 -19 28 -20 109 -16 107 5 136 12 137 35 0 12 2 11 9
-4 7 -16 9 -17 9 -3 1 22 -17 32 -33 19 -10 -9 -15 -8 -19 2 -3 9 -26 14 -68
16 -35 1 -66 4 -68 7 -13 12 22 55 49 60 16 4 30 10 30 15 0 11 -54 0 -58 -12
-5 -14 -50 -11 -55 4 -4 10 -6 10 -6 0 -1 -17 -63 -17 -79 -1 -9 9 -12 9 -12
0 0 -7 -5 -12 -11 -12 -5 0 -7 5 -4 10 3 6 1 10 -4 10 -6 0 -11 -4 -11 -10 0
-5 -4 -10 -10 -10 -5 0 -7 7 -4 15 5 11 2 13 -10 9 -9 -3 -16 -2 -16 4 0 6 37
8 98 6 115 -5 156 2 148 23 -5 11 2 14 32 11 23 -2 36 -8 34 -15 -1 -7 7 -13
18 -13 22 0 27 15 8 23 -7 3 10 6 37 6 69 1 86 -11 54 -38 l-24 -21 50 15 c28
8 53 15 58 15 4 0 7 18 7 40 l0 40 210 0 c116 0 213 -1 217 -2 4 -2 7 -23 7
-48 l-1 -45 -252 -6 c-175 -3 -255 -9 -263 -17 -9 -9 -4 -12 23 -13 18 0 28
-3 20 -6 -10 -4 -8 -9 10 -19 13 -7 19 -13 12 -14 -7 0 -24 -11 -39 -25 -30
-27 -19 -31 36 -11 30 11 36 18 40 52 l5 39 215 0 215 0 0 -47 0 -47 -210 -5
c-231 -5 -327 -14 -319 -28 4 -6 89 -7 214 -3 124 3 211 2 214 -3 10 -17 100
6 119 30 19 23 19 26 0 160 -10 63 -34 98 -69 98 -13 0 -26 5 -30 12 -5 8 -10
7 -18 -4 -9 -13 -38 -15 -159 -15 l-148 1 -30 38 -31 38 -138 0 c-149 0 -153
1 -163 58 l-6 32 322 2 322 3 -312 2 c-300 3 -312 4 -318 23 -3 11 -18 29 -32
40 -24 19 -40 20 -222 20 -114 0 -203 -5 -214 -11z m433 -104 l0 -75 -207 0
c-182 0 -209 -2 -226 -17 -20 -17 -20 -17 -14 7 4 14 7 55 7 93 l0 67 220 0
220 0 0 -75z m-618 -17 c3 -40 9 -81 13 -92 8 -17 7 -17 -24 -2 -27 14 -61 16
-226 14 l-195 -3 0 78 0 77 214 0 213 0 5 -72z m152 7 c-3 -19 -3 -50 0 -68
l6 -34 160 5 160 5 0 -24 c0 -16 -12 -31 -36 -47 -20 -13 -34 -25 -32 -27 2
-3 27 3 56 12 51 16 52 18 52 55 l0 38 215 0 215 0 0 -49 0 -48 -237 -6 c-238
-6 -335 -16 -284 -30 21 -5 22 -8 12 -21 -7 -9 -11 -22 -8 -29 7 -19 -8 -41
-22 -32 -9 5 -9 11 1 22 10 12 9 17 -5 28 -9 7 -17 22 -17 33 0 31 -29 42
-110 42 -59 0 -71 3 -67 14 4 11 1 13 -11 9 -9 -4 -20 -11 -24 -17 -4 -6 -10
-7 -14 -3 -4 4 3 16 16 27 13 11 18 20 12 20 -6 0 -19 -9 -29 -19 -15 -16 -34
-20 -100 -22 -46 -1 -80 -5 -78 -10 3 -4 1 -10 -4 -13 -13 -8 -61 37 -61 57 0
23 19 21 47 -5 13 -12 23 -16 23 -10 0 7 15 12 35 12 21 0 35 -5 35 -12 0 -10
2 -10 8 -1 4 6 25 13 47 16 33 3 29 4 -17 5 -53 2 -58 4 -58 25 -1 12 -3 48
-7 80 l-5 57 66 0 67 0 -7 -35z m-264 -159 c0 -21 7 -26 43 -34 l42 -9 -42 -7
c-24 -4 -43 -12 -43 -17 0 -5 -94 -9 -220 -9 l-220 0 0 43 c0 24 3 47 7 50 3
4 102 7 220 7 l213 0 0 -24z m193 -35 c9 -1 17 -7 17 -14 0 -9 -16 -14 -46
-16 -32 -1 -44 1 -39 9 4 7 -1 6 -14 -2 -12 -7 -21 -16 -21 -20 0 -7 90 -13
133 -9 11 2 17 -5 17 -17 0 -18 -8 -20 -68 -21 -65 -1 -70 1 -80 25 -7 14 -16
23 -21 19 -5 -3 -12 -1 -16 5 -3 5 -1 11 4 11 6 1 17 2 24 3 6 0 13 7 13 14 1
6 2 13 3 15 0 1 18 1 38 0 21 -1 46 -2 56 -2z m149 -15 c6 -8 8 -8 8 1 0 7 24
11 70 12 56 0 70 -2 70 -15 0 -12 -19 -15 -122 -13 -127 2 -142 4 -133 19 8
13 99 10 107 -4z m38 -58 c0 7 5 12 10 12 6 0 10 -7 10 -15 0 -17 -45 -21 -55
-5 -5 8 -11 7 -20 0 -8 -7 -19 -9 -24 -6 -5 4 -12 2 -16 -4 -10 -16 -25 -11
-25 9 0 15 8 19 41 19 23 1 44 4 47 7 4 3 12 -2 19 -11 7 -10 13 -12 13 -6z
m-303 5 c-4 -3 -24 -9 -44 -12 l-38 -6 0 -50 0 -50 -217 -3 -218 -2 0 60 0 60
228 3 c125 1 242 3 261 5 19 1 31 -1 28 -5z m383 -9 c0 -10 -6 -14 -14 -11 -7
3 -19 0 -25 -6 -8 -8 -11 -5 -11 11 0 17 6 22 25 22 16 0 25 -6 25 -16z m-260
-49 c0 -5 5 -3 11 5 8 11 12 12 16 2 2 -6 10 -9 16 -5 21 13 38 12 44 -3 7
-18 33 -18 33 0 0 8 10 14 25 14 28 0 35 -27 8 -29 -10 -1 -72 -2 -138 -3
-104 -1 -121 1 -121 15 0 13 11 16 53 15 29 0 53 -5 53 -11z m258 -3 c2 -8
-10 -12 -37 -12 -29 0 -41 4 -41 14 0 18 72 16 78 -2z m172 3 c0 -11 -11 -14
-40 -13 -23 1 -40 6 -40 13 0 7 17 12 40 13 29 1 40 -2 40 -13z m-260 -52 c0
-12 3 -14 8 -7 4 7 18 11 32 10 14 -1 42 1 63 5 30 5 37 3 37 -10 0 -10 3 -12
8 -6 11 16 50 16 56 -1 4 -11 -14 -14 -107 -14 -104 -1 -199 0 -322 4 -67 1
-64 20 3 24 36 2 52 0 47 -7 -3 -6 -1 -11 4 -11 6 0 11 4 11 9 0 5 25 10 55
10 36 0 54 -4 52 -12 -1 -7 7 -12 18 -12 13 0 20 6 19 18 -1 9 2 17 7 17 5 0
9 -8 9 -17z m340 8 c0 -4 16 -6 37 -4 23 2 39 -1 44 -9 7 -10 9 -8 9 5 0 10 5
15 10 12 6 -4 8 -11 5 -16 -4 -5 -1 -9 4 -9 6 0 11 7 11 15 0 8 5 15 10 15 6
0 10 -4 10 -10 0 -5 7 -7 15 -4 9 4 15 0 15 -9 0 -12 -17 -15 -95 -15 -86 0
-95 2 -95 19 0 11 5 19 10 19 6 0 10 -4 10 -9z"/>
<path d="M1390 1075 c0 -18 11 -19 29 -2 11 10 13 10 7 0 -4 -8 -1 -13 8 -13
10 0 13 6 10 15 -4 8 -17 15 -30 15 -15 0 -24 -6 -24 -15z"/>
<path d="M900 1066 c-3 -3 -33 -6 -68 -7 -80 -3 -80 -16 -1 -21 64 -3 84 2 78
21 -3 7 -7 10 -9 7z"/>
<path d="M580 1050 c0 -6 16 -10 35 -10 19 0 35 4 35 8 0 5 -16 9 -35 10 -19
1 -35 -3 -35 -8z"/>
<path d="M1610 928 c0 -4 16 -8 35 -8 19 0 35 4 35 8 0 5 -16 9 -35 9 -19 0
-35 -4 -35 -9z"/>
<path d="M1780 930 c0 -5 16 -10 35 -10 19 0 35 5 35 10 0 6 -16 10 -35 10
-19 0 -35 -4 -35 -10z"/>
<path d="M500 879 c0 -11 18 -14 75 -14 41 1 77 4 81 8 4 4 -22 7 -59 7 -36 0
-72 3 -81 6 -10 4 -16 1 -16 -7z"/>
<path d="M707 883 c-20 -2 -35 -8 -32 -14 8 -13 65 -11 65 2 0 5 5 7 10 4 6
-3 10 -1 10 4 0 6 -3 10 -7 9 -5 -1 -25 -3 -46 -5z"/>
<path d="M490 740 c0 -6 16 -10 35 -10 19 0 35 4 35 8 0 5 -16 9 -35 10 -19 1
-35 -3 -35 -8z"/>
<path d="M570 740 c0 -6 30 -10 71 -10 44 0 68 4 64 10 -3 6 -35 10 -71 10
-36 0 -64 -4 -64 -10z"/>
<path d="M720 740 c0 -5 22 -10 49 -10 28 0 53 5 56 10 4 6 -15 10 -49 10 -31
0 -56 -4 -56 -10z"/>
<path d="M1970 869 c0 -4 38 -8 85 -8 47 0 85 3 85 7 0 4 -38 8 -85 8 -47 1
-85 -2 -85 -7z"/>
<path d="M2200 868 c0 -4 23 -8 50 -8 28 0 50 5 50 10 0 6 -22 9 -50 8 -27 -1
-50 -6 -50 -10z"/>
<path d="M2060 831 c0 -5 34 -9 75 -8 98 3 98 17 0 17 -41 0 -75 -4 -75 -9z"/>
<path d="M2030 756 c0 -13 10 -16 55 -14 62 3 76 18 16 18 -22 0 -46 3 -55 6
-11 4 -16 1 -16 -10z"/>
<path d="M1478 634 c-10 -15 -12 -114 -3 -146 l7 -28 -373 -2 -374 -3 364 -5
364 -5 10 -30 c21 -66 19 -66 253 -65 229 2 239 4 247 58 2 12 8 27 13 32 5 5
70 11 144 13 l135 3 -150 2 -150 2 3 43 c3 34 -1 46 -20 64 -22 21 -34 22
-191 25 -92 2 -167 0 -167 -4 0 -12 -54 15 -72 37 -21 24 -23 9 -5 -35 l14
-32 206 2 207 1 0 -91 0 -90 -216 2 -215 3 -5 75 c-7 112 -18 186 -26 174z"/>
<path d="M1650 503 c0 -9 22 -12 75 -11 41 1 75 5 75 10 0 4 -10 8 -22 8 -13
1 -47 2 -75 3 -37 2 -53 -1 -53 -10z"/>
<path d="M2842 169 c-12 -5 -27 -20 -34 -34 -10 -22 -9 -29 10 -48 21 -20 24
-21 50 -7 52 30 29 110 -26 89z m38 -39 c0 -11 -7 -20 -15 -20 -8 0 -15 -4
-15 -10 0 -5 -4 -10 -10 -10 -5 0 -10 14 -10 30 0 25 4 30 25 30 18 0 25 -5
25 -20z"/>
</g>
</svg>
